<?xml version="1.0" encoding="UTF-8" standalone="no"?>
<!DOCTYPE svg PUBLIC "-//W3C//DTD SVG 1.1//EN" "http://www.w3.org/Graphics/SVG/1.1/DTD/svg11.dtd">
<svg xmlns="http://www.w3.org/2000/svg" xmlns:xlink="http://www.w3.org/1999/xlink" version="1.1" width="85.0394pt" height="85.0394pt" viewBox="0 0 85.0394 85.0394">
<g enable-background="new">
<g>
<g id="Layer-1" data-name="Legenda, Popis">
<path transform="matrix(1,0,0,-1,0,85.0394)" d="M 2.43175 42.51968 L 42.51968 2.43175 L 82.60764 42.51968 L 42.51968 82.60764 L 2.43175 42.51968 Z " fill="#2d2d2d"/>
</g>
<g id="Layer-1" data-name="Text obecně">
<path transform="matrix(1,0,0,-1,0,85.0394)" d="M 38.74596 23.84636 L 30.53088 23.84636 L 30.53088 31.03871 L 37.87466 31.03871 L 37.87466 32.20566 L 30.53088 32.20566 L 30.53088 38.51579 L 38.32275 38.51579 L 38.32275 39.68274 L 28.99023 39.68274 L 28.99023 22.67943 L 38.74596 22.67943 L 38.74596 23.84636 Z " fill="#ffffff"/>
<path transform="matrix(1,0,0,-1,0,85.0394)" d="M 49.05229 39.95888 L 47.86357 39.95454 L 46.80144 39.68872 L 45.73932 39.4229 L 44.8038 38.89557 L 43.86827 38.36824 L 43.12894 37.60542 L 42.38962 36.84259 L 41.84647 35.84425 L 41.30333 34.84593 L 41.02596 33.63808 L 40.74858 32.43024 L 40.73698 31.01288 L 40.74789 29.66747 L 41.01627 28.51382 L 41.28464 27.36018 L 41.81049 26.3983 L 42.33632 25.43642 L 43.0542 24.69788 L 43.77208 23.95935 L 44.68201 23.44417 L 45.59192 22.929 L 46.62843 22.66878 L 47.66496 22.40855 L 48.82808 22.40329 L 49.93988 22.40211 L 50.96278 22.64531 L 51.9857 22.88849 L 52.91972 23.37605 L 53.85374 23.8636 L 54.60509 24.60255 L 55.35641 25.34151 L 55.92505 26.33183 L 56.49368 27.32217 L 56.78583 28.57094 L 57.07796 29.8197 L 57.0936 31.32687 L 57.08557 32.64601 L 56.83011 33.78865 L 56.57466 34.93127 L 56.07176 35.89743 L 55.56886 36.86357 L 54.86667 37.61102 L 54.16446 38.35849 L 53.26297 38.88727 L 52.36147 39.41603 L 51.30879 39.68394 L 50.25613 39.95184 L 49.05229 39.95888 Z M 49.79729 38.80939 L 50.52881 38.63872 L 51.26033 38.46805 L 51.87872 38.13547 L 53.11552 37.47032 L 53.91965 36.3678 L 54.72377 35.26527 L 55.11508 33.93565 L 55.50639 32.60603 L 55.50475 31.2596 L 55.50323 30.22432 L 55.31316 29.27068 L 55.12308 28.31703 L 54.74443 27.44499 L 54.36577 26.57297 L 53.80754 25.87102 L 53.2493 25.16907 L 52.51149 24.63722 L 51.77367 24.10536 L 50.86528 23.83206 L 49.95688 23.55875 L 48.8779 23.54401 L 47.81726 23.56125 L 46.92201 23.83891 L 46.02678 24.11658 L 45.29692 24.65466 L 44.56706 25.19275 L 44.01369 25.88785 L 43.4603 26.58293 L 43.08337 27.43503 L 42.70645 28.28712 L 42.51707 29.19279 L 42.32768 30.09848 L 42.32584 31.05772 L 42.32361 32.49538 L 42.71317 33.86942 L 43.10271 35.24345 L 43.91092 36.35938 L 44.71912 37.47531 L 45.97284 38.13863 L 46.5997 38.47029 L 47.34465 38.64017 L 48.0896 38.81004 L 48.95264 38.81816 L 49.79729 38.80939 Z " fill="#ffffff"/>
<path transform="matrix(1,0,0,-1,0,85.0394)" d="M 38.30185 61.84924 L 37.80666 62.1487 L 36.84579 62.38503 L 35.88493 62.62137 L 34.57004 62.63469 L 32.92899 62.62428 L 31.68471 62.07079 L 30.44041 61.5173 L 29.73909 60.54559 L 29.38843 60.05974 L 29.21005 59.50055 L 29.03168 58.94136 L 29.02559 58.30884 L 29.03915 57.43262 L 29.36618 56.70657 L 29.69321 55.98053 L 30.33369 55.40466 L 30.97418 54.8288 L 31.84676 54.36742 L 32.71933 53.90602 L 33.82399 53.5591 L 34.79501 53.21498 L 35.49677 52.811 L 36.19852 52.40703 L 36.63098 51.94318 L 37.06345 51.47934 L 37.2756 50.90312 L 37.48775 50.32692 L 37.47958 49.63834 L 37.47144 48.87903 L 37.18468 48.27202 L 36.89792 47.66499 L 36.33257 47.21025 L 35.76721 46.75551 L 34.9722 46.52237 L 34.1772 46.28922 L 33.15254 46.27766 L 31.98529 46.28537 L 30.93953 46.58293 L 29.89377 46.88049 L 29.10013 47.37549 L 28.5775 46.21034 L 29.32201 45.72926 L 30.54176 45.42491 L 31.76152 45.12054 L 33.0282 45.11073 L 34.01169 45.11812 L 34.83852 45.27715 L 35.66536 45.43617 L 36.33556 45.74684 L 37.00575 46.05753 L 37.51224 46.47556 L 38.01871 46.89359 L 38.36148 47.41898 L 38.70424 47.94435 L 38.87622 48.53281 L 39.04819 49.12125 L 39.04936 49.77275 L 39.04655 50.69868 L 38.74854 51.45134 L 38.45052 52.20398 L 37.85728 52.78336 L 37.26405 53.36272 L 36.3925 53.85912 L 35.52097 54.35551 L 34.37109 54.76894 L 33.3954 55.12321 L 32.675 55.51108 L 31.95459 55.89896 L 31.48947 56.32045 L 31.02435 56.74193 L 30.79355 57.28943 L 30.56274 57.83694 L 30.56624 58.51047 L 30.55841 59.18945 L 30.93742 59.86467 L 31.31644 60.53989 L 32.17624 60.9948 L 32.60614 61.22224 L 33.17972 61.34048 L 33.7533 61.45872 L 34.47057 61.46774 L 35.67278 61.44885 L 36.52538 61.19055 L 37.37798 60.93224 L 37.77859 60.6613 L 38.30185 61.84924 Z " fill="#ffffff"/>
<path transform="matrix(1,0,0,-1,0,85.0394)" d="M 55.50595 62.36125 L 53.9653 62.36125 L 53.9653 54.94203 L 44.08063 54.94203 L 44.08063 62.36125 L 42.53996 62.36125 L 42.53996 45.35524 L 44.08063 45.35524 L 44.08063 53.75792 L 53.9653 53.75792 L 53.9653 45.35524 L 55.50595 45.35524 L 55.50595 62.36125 Z " fill="#ffffff"/>
</g>
</g>
</g>
</svg>
